<?xml version="1.0" encoding="utf-8"?>
<!-- Generator: Adobe Illustrator 19.0.0, SVG Export Plug-In . SVG Version: 6.00 Build 0)  -->
<svg version="1.1" id="Layer_1" xmlns="http://www.w3.org/2000/svg" xmlns:xlink="http://www.w3.org/1999/xlink" x="0px" y="0px"
	 viewBox="0 0 500 500" style="enable-background:new 0 0 500 500;" xml:space="preserve">
<style type="text/css">
	.st0{fill:#FFFFFF;stroke:#136AEA;stroke-width:3;stroke-miterlimit:10;}
	.st1{font-family:'Righteous-Regular';}
	.st2{font-size:34.5316px;}
</style>
<g id="XMLID_2_">
	<path id="XMLID_4_" class="st0" d="M298.1,194.4c-0.1,0-0.1,0-0.2,0c-1.5-8.1-8.7-14.3-17.3-14.3c-1.3,0-2.5,0.1-3.7,0.4
		c-3.7-13.7-16.2-23.8-31-23.8c-15,0-27.5,10.2-31.1,24.1c-1.7-0.4-3.4-0.6-5.2-0.6c-11.9,0-21.6,10.8-21.6,22.7
		c0,11.9,9.7,22.7,21.6,22.7h32.9v18h-9.9l13.8,16.1l13.8-16.1h-10.6v-19.6v-16.4h-8.6l13.8-16.1l13.8,16.1h-10.9v18h38.3
		c0.7,0,2.4-0.4,3.2-0.4c8,0,13.7-7.7,13.7-15.7C312.6,201.4,306.1,194.4,298.1,194.4z"/>
	<text id="XMLID_1_" transform="matrix(1 0 0 1 113.0371 293.0701)"><tspan x="0" y="0" class="st1 st2">Cloud Gamesave </tspan><tspan x="65.4" y="41.4" class="st1 st2">Manager</tspan></text>
</g>
</svg>
